<svg xmlns="http://www.w3.org/2000/svg" style="height:512px;width:512px" viewBox="0 0 512 512"><path fill="#532c19" d="M185.4 36.9s-24.7 5.7-35.7 15.5C111 86.6 98.4 120.1 95.9 158l-44 47c96.3-18 207.7-22 340.6-21-21-14-41.3-25.7-59.3-36.7-14.5-35.5-33.7-76.6-66-95.4-14-8.2-29-14-43.9-16.8-10.7-20.3-35.4-11.9-37.9 1.8zM105 214.8a301 301 0 0 0 89.7 103c18.3 12.6 36.8 21.7 51 24.2 12 2.2 23.5-1.5 28.9-10.7A331.2 331.2 0 0 0 295 288c15.7 1.7 33.4 2.5 38-1.2 7.3-5.9-8.8-56-16-69.4 3-6.3 3-12.8 3-17.6-39.4-2.2-150.6 6.4-215 14.9zm342.1 6c-13.3.4-24.9 10-33.4 22.7a128.8 128.8 0 0 0-18.8 55c-2.7 21.8-.8 42 5 58a49.2 49.2 0 0 0 20.6 27.6l-10.8 108.6 18 1.8 10.6-107.1c12-1.6 22.4-10.6 30.3-22.4a128.8 128.8 0 0 0 18.8-55c2.6-21.8.7-42-5-58s-16-29-31-31a29 29 0 0 0-4.3-.1zm2 18.1c5.5.7 11.9 6.6 16.4 19.1 4.4 12.6 6.4 30.4 4 49.7a112.9 112.9 0 0 1-16 47.3c-7.3 11-14.9 15.2-20.4 14.6-5.5-.7-11.8-6.6-16.3-19.1a112.9 112.9 0 0 1-4-49.7c2.3-19.3 8.5-36.2 15.9-47.3 5-6.1 12.7-15.2 20.4-14.6zm-350 3.6a191 191 0 0 1-66.3 56A469.3 469.3 0 0 1 148.2 341c42.3 21.5 80.7 47.2 106.7 71.1l2.4-24.7a363.3 363.3 0 0 0-36-34.2c-12-5-24.5-12.2-36.7-20.7-36.4-25.2-70.9-60.9-85.3-90zm344.7 11.3c0 21.5 3 45.5 9.7 64.6 6.8-19.7 7-55.2-9.7-64.6zm-137.6 54.4a353 353 0 0 1-7.8 16.6 43 43 0 0 1 14 15.5 34 34 0 0 1 2.1 21.3c-2.2 14-10.2 31.5-14.3 52.2-9 12.7-1.6 56 18.2 61 44.7 11 69.8-35.7 59.7-46.7-9.9-10.8-37.6-19.8-58-20 4-14.7 9.8-29 12.2-43.6a53 53 0 0 0-3.8-32 63.6 63.6 0 0 0-22.3-24.3zm-273 8.8c-4.7 7.3-9.9 15.5-15.2 24.5V494h255.2c-3-14.1-5.7-28.7-8.8-42.6-.7-5.7-5.3-9.1-9-13.3-22-24.5-66.4-56-115.5-81-35.2-17.9-73-32.6-106.6-40z"/></svg>